<?xml version="1.0" encoding="UTF-8"?>
<svg width="24" height="24" viewBox="0 0 24 24" fill="none" xmlns="http://www.w3.org/2000/svg">
    <!-- Puzzle pieces -->
    <path d="M12 4C12 2.89543 12.8954 2 14 2H18C19.1046 2 20 2.89543 20 4V8C20 9.10457 19.1046 10 18 10H14C12.8954 10 12 9.10457 12 8V4Z" stroke="#2AABEE" stroke-width="2"/>
    <path d="M4 12C2.89543 12 2 12.8954 2 14V18C2 19.1046 2.89543 20 4 20H8C9.10457 20 10 19.1046 10 18V14C10 12.8954 9.10457 12 8 12H4Z" stroke="#2AABEE" stroke-width="2"/>
    <path d="M14 12C12.8954 12 12 12.8954 12 14V18C12 19.1046 12.8954 20 14 20H18C19.1046 20 20 19.1046 20 18V14C20 12.8954 19.1046 12 18 12H14Z" stroke="#2AABEE" stroke-width="2"/>
    <path d="M4 4C4 2.89543 4.89543 2 6 2H8C9.10457 2 10 2.89543 10 4V8C10 9.10457 9.10457 10 8 10H6C4.89543 10 4 9.10457 4 8V4Z" stroke="#2AABEE" stroke-width="2"/>
</svg>
